<svg width="500" height="628" viewBox="0 0 500 628" fill="none" xmlns="http://www.w3.org/2000/svg">
<path d="M422.184 196.747C398.381 174.135 370.358 156.433 339.714 144.652C309.07 132.87 276.406 127.24 243.587 128.082C210.767 128.924 178.435 136.223 148.435 149.56C118.436 162.898 91.358 182.014 68.7465 205.816L166.34 298.526C176.776 287.54 189.275 278.716 203.121 272.56C216.968 266.404 231.891 263.035 247.04 262.646C262.188 262.258 277.265 264.857 291.409 270.294C305.553 275.732 318.488 283.903 329.474 294.34L422.184 196.747Z" fill="#D0A13C"/>
<rect x="266.71" width="135.836" height="286.177" transform="rotate(43.9762 266.71 0)" fill="#F5C844" fill-opacity="0.8"/>
</svg>
